<?xml version="1.0" encoding="UTF-8" standalone="no"?>
<!-- Created with Inkscape (http://www.inkscape.org/) -->

<svg
   xmlns:dc="http://purl.org/dc/elements/1.1/"
   xmlns:cc="http://creativecommons.org/ns#"
   xmlns:rdf="http://www.w3.org/1999/02/22-rdf-syntax-ns#"
   xmlns:svg="http://www.w3.org/2000/svg"
   xmlns="http://www.w3.org/2000/svg"
   xmlns:sodipodi="http://sodipodi.sourceforge.net/DTD/sodipodi-0.dtd"
   xmlns:inkscape="http://www.inkscape.org/namespaces/inkscape"
   width="147.02mm"
   height="211.02mm"
   viewBox="0 0 147.02 211.02"
   version="1.1"
   id="svg8"
   inkscape:version="0.92.2 (5c3e80d, 2017-08-06)"
   sodipodi:docname="ACP1 box.svg">
  <sodipodi:namedview
     id="base"
     pagecolor="#ffffff"
     bordercolor="#666666"
     borderopacity="1.0"
     inkscape:pageopacity="0.0"
     inkscape:pageshadow="2"
     inkscape:zoom="7.2407734"
     inkscape:cx="369.09911"
     inkscape:cy="728.27538"
     inkscape:document-units="mm"
     inkscape:current-layer="layer1"
     showgrid="false"
     inkscape:window-width="1920"
     inkscape:window-height="986"
     inkscape:window-x="-11"
     inkscape:window-y="-11"
     inkscape:window-maximized="1" />
  <defs
     id="defs2" />
  <metadata
     id="metadata5">
    <rdf:RDF>
      <cc:Work
         rdf:about="">
        <dc:format>image/svg+xml</dc:format>
        <dc:type
           rdf:resource="http://purl.org/dc/dcmitype/StillImage" />
        <dc:title />
      </cc:Work>
    </rdf:RDF>
  </metadata>
  <g
     inkscape:label="Taso 1"
     inkscape:groupmode="layer"
     id="layer1"
     transform="translate(-34.989998,7.51)">
    <g
       id="box"
       transform="translate(38,-4.5)"
       style="stroke-width:0.02;stroke-miterlimit:4;stroke-dasharray:none">
      <path
         d="m 0,0 h 1.9090909 v -3 h 3.8181818 v 3 h 3.818182 v -3 h 3.8181823 v 3 h 3.818182 V -3 H 21 v 3 h 3.818182 v -3 h 3.818182 v 3 h 3.818182 v -3 h 3.818182 v 3 h 3.818182 v -3 h 3.818182 v 3 h 3.818182 v -3 h 3.818182 v 3 h 3.818182 v -3 h 3.818181 v 3 h 3.818182 v -3 h 3.818182 v 3 h 3.818182 v -3 h 3.818182 v 3 h 3.818182 v -3 h 3.818182 v 3 h 1.909091 v 1 h 3 v 2 h -3 v 2 h 3 v 2 h -3 v 2 h 3 v 2 h -3 v 2 h 3 v 2 h -3 v 2 h 3 v 2 h -3 v 2 h 3 v 2 h -3 v 2 h 3 v 2 h -3 v 2 h 3 v 2 h -3 v 2 h 3 v 2 h -3 v 2 h 3 v 2 h -3 v 2 h 3 v 2 h -3 v 1 h -1.909091 v 3 h -3.818182 v -3 h -3.818182 v 3 h -3.818182 v -3 h -3.818182 v 3 h -3.818182 v -3 h -3.818182 v 3 h -3.818181 v -3 h -3.818182 v 3 h -3.818182 v -3 h -3.818182 v 3 H 40.09091 v -3 h -3.818182 v 3 h -3.818182 v -3 h -3.818182 v 3 H 24.818182 V 44 H 21 v 3 h -3.818181 v -3 h -3.818182 v 3 H 9.5454547 v -3 h -3.818182 v 3 H 1.9090909 V 44 H 0 V 43 H -3 V 41 H 0 V 39 H -3 V 37 H 0 V 35 H -3 V 33 H 0 V 31 H -3 V 29 H 0 V 27 H -3 V 25 H 0 V 23 H -3 V 21 H 0 V 19 H -3 V 17 H 0 V 15 H -3 V 13 H 0 V 11 H -3 V 9 H 0 V 7 H -3 V 5 H 0 V 3 H -3 V 1 H 0 V 0"
         id="box-lid"
         style="fill:none;stroke:#0000ff;stroke-width:0.02;stroke-linecap:butt;stroke-linejoin:miter;stroke-miterlimit:4;stroke-dasharray:none"
         inkscape:connector-curvature="0" />
      <path
         d="m 0,47 v -3 m 84,0 v 3 h 3 v 2.25 h -3 v 4.5 h 3 v 4.5 h -3 v 4.5 h 3 v 4.5 h -3 v 4.5 h 3 v 4.5 h -3 v 4.5 h 3 v 4.5 h -3 v 4.5 h 3 v 4.5 h -3 v 4.5 h 3 V 101 h -3 v 3 h -1.909091 v -3 h -3.818182 v 3 h -3.818182 v -3 h -3.818182 v 3 h -3.818182 v -3 H 63 v 3 h -3.818182 v -3 h -3.818182 v 3 h -3.818182 v -3 h -3.818182 v 3 H 43.90909 v -3 h -3.818182 v 3 h -3.818182 v -3 h -3.818182 v 3 h -3.818182 v -3 h -3.818181 v 3 h -3.818182 v -3 h -3.818182 v 3 h -3.818182 v -3 H 9.5454529 v 3 h -3.818182 v -3 H 1.9090891 v 3 H -1.81816e-6 v -3 H -3.0000018 V 98.75 H -1.81816e-6 v -4.5 H -3.0000018 v -4.5 H -1.81816e-6 v -4.5 H -3.0000018 v -4.5 H -1.81816e-6 v -4.5 H -3.0000018 v -4.5 H -1.81816e-6 v -4.5 H -3.0000018 v -4.5 H -1.81816e-6 v -4.5 H -3.0000018 v -4.5 H -1.81816e-6 v -4.5 H -3.0000018 V 47 H -1.81816e-6"
         id="box-longside1"
         style="fill:none;stroke:#0000ff;stroke-width:0.02;stroke-linecap:butt;stroke-linejoin:miter;stroke-miterlimit:4;stroke-dasharray:none"
         inkscape:connector-curvature="0" />
      <path
         d="m 0,104 m 84,0 v 1 h 3 v 2 h -3 v 2 h 3 v 2 h -3 v 2 h 3 v 2 h -3 v 2 h 3 v 2 h -3 v 2 h 3 v 2 h -3 v 2 h 3 v 2 h -3 v 2 h 3 v 2 h -3 v 2 h 3 v 2 h -3 v 2 h 3 v 2 h -3 v 2 h 3 v 2 h -3 v 2 h 3 v 2 h -3 v 1 h -1.909091 v 3 h -3.818182 v -3 h -3.818182 v 3 h -3.818182 v -3 h -3.818182 v 3 H 63 v -3 h -3.818182 v 3 h -3.818182 v -3 h -3.818182 v 3 h -3.818182 v -3 H 43.90909 v 3 h -3.818182 v -3 h -3.818182 v 3 h -3.818182 v -3 h -3.818182 v 3 h -3.818181 v -3 h -3.818182 v 3 h -3.818182 v -3 h -3.818182 v 3 H 9.5454529 v -3 h -3.818182 v 3 H 1.9090891 v -3 H -1.81816e-6 v -1 H -3.0000018 v -2 H -1.81816e-6 v -2 H -3.0000018 v -2 H -1.81816e-6 v -2 H -3.0000018 v -2 H -1.81816e-6 v -2 H -3.0000018 v -2 H -1.81816e-6 v -2 H -3.0000018 v -2 H -1.81816e-6 v -2 H -3.0000018 v -2 H -1.81816e-6 v -2 H -3.0000018 v -2 H -1.81816e-6 v -2 H -3.0000018 v -2 H -1.81816e-6 v -2 H -3.0000018 v -2 H -1.81816e-6 v -2 H -3.0000018 v -2 H -1.81816e-6 v -2 H -3.0000018 v -2 H -1.81816e-6 v -1"
         id="box-base"
         style="fill:none;stroke:#0000ff;stroke-width:0.02;stroke-linecap:butt;stroke-linejoin:miter;stroke-miterlimit:4;stroke-dasharray:none"
         inkscape:connector-curvature="0" />
      <path
         d="m 0,151 v -3 m 84,0 v 3 h 3 v 2.25 h -3 v 4.5 h 3 v 4.5 h -3 v 4.5 h 3 v 4.5 h -3 v 4.5 h 3 v 4.5 h -3 v 4.5 h 3 v 4.5 h -3 v 4.5 h 3 v 4.5 h -3 v 4.5 h 3 V 205 h -3 v 3 h -1.909091 v -3 h -3.818182 v 3 h -3.818182 v -3 h -3.818182 v 3 h -3.818182 v -3 H 63 v 3 h -3.818182 v -3 h -3.818182 v 3 h -3.818182 v -3 h -3.818182 v 3 H 43.90909 v -3 h -3.818182 v 3 h -3.818182 v -3 h -3.818182 v 3 h -3.818182 v -3 h -3.818181 v 3 h -3.818182 v -3 h -3.818182 v 3 h -3.818182 v -3 H 9.5454529 v 3 h -3.818182 v -3 H 1.9090891 v 3 H -1.81816e-6 v -3 H -3.0000018 v -2.25 H -1.81816e-6 v -4.5 H -3.0000018 v -4.5 H -1.81816e-6 v -4.5 H -3.0000018 v -4.5 H -1.81816e-6 v -4.5 H -3.0000018 v -4.5 H -1.81816e-6 v -4.5 H -3.0000018 v -4.5 H -1.81816e-6 v -4.5 H -3.0000018 v -4.5 H -1.81816e-6 v -4.5 H -3.0000018 V 151 H -1.81816e-6"
         id="box-longside2"
         style="fill:none;stroke:#0000ff;stroke-width:0.02;stroke-linecap:butt;stroke-linejoin:miter;stroke-miterlimit:4;stroke-dasharray:none"
         inkscape:connector-curvature="0" />
      <path
         d="m 84,0 h 5.25 v -3 h 4.5 v 3 h 4.5 v -3 h 4.5 v 3 h 4.5 v -3 h 4.5 v 3 h 4.5 v -3 h 4.5 v 3 h 4.5 v -3 h 4.5 v 3 h 4.5 v -3 h 4.5 V 0 H 144 v 1 h -3 v 2 h 3 v 2 h -3 v 2 h 3 v 2 h -3 v 2 h 3 v 2 h -3 v 2 h 3 v 2 h -3 v 2 h 3 v 2 h -3 v 2 h 3 v 2 h -3 v 2 h 3 v 2 h -3 v 2 h 3 v 2 h -3 v 2 h 3 v 2 h -3 v 2 h 3 v 2 h -3 v 2 h 3 v 1 h -5.25 v 3 h -4.5 v -3 h -4.5 v 3 h -4.5 v -3 h -4.5 v 3 h -4.5 v -3 h -4.5 v 3 h -4.5 v -3 h -4.5 v 3 h -4.5 v -3 h -4.5 v 3 h -4.5 V 44 H 87 84"
         id="box-endface2"
         style="fill:none;stroke:#0000ff;stroke-width:0.02;stroke-linecap:butt;stroke-linejoin:miter;stroke-miterlimit:4;stroke-dasharray:none"
         inkscape:connector-curvature="0" />
      <path
         d="m 84,104 h 5.25 v -3 h 4.5 v 3 h 4.5 v -3 h 4.5 v 3 h 4.5 v -3 h 4.5 v 3 h 4.5 v -3 h 4.5 v 3 h 4.5 v -3 h 4.5 v 3 h 4.5 v -3 h 4.5 v 3 H 144 v 1 h -3 v 2 h 3 v 2 h -3 v 2 h 3 v 2 h -3 v 2 h 3 v 2 h -3 v 2 h 3 v 2 h -3 v 2 h 3 v 2 h -3 v 2 h 3 v 2 h -3 v 2 h 3 v 2 h -3 v 2 h 3 v 2 h -3 v 2 h 3 v 2 h -3 v 2 h 3 v 2 h -3 v 2 h 3 v 1 h -5.25 v 3 h -4.5 v -3 h -4.5 v 3 h -4.5 v -3 h -4.5 v 3 h -4.5 v -3 h -4.5 v 3 h -4.5 v -3 h -4.5 v 3 h -4.5 v -3 h -4.5 v 3 h -4.5 v -3 H 87 84"
         id="box-endface1"
         style="fill:none;stroke:#0000ff;stroke-width:0.02;stroke-linecap:butt;stroke-linejoin:miter;stroke-miterlimit:4;stroke-dasharray:none"
         inkscape:connector-curvature="0" />
    </g>
    <g
       transform="translate(38,-4.5)"
       id="boxv"
       style="stroke-width:0.02;stroke-miterlimit:4;stroke-dasharray:none">
      <path
         style="fill:none;stroke:#0000ff;stroke-width:0.02;stroke-linecap:butt;stroke-linejoin:miter;stroke-miterlimit:4;stroke-dasharray:none"
         id="boxv-lid"
         d="m 0,0 h 1.9090909 v -3 h 3.8181818 v 3 h 3.818182 v -3 h 3.8181823 v 3 h 3.818182 V -3 H 21 v 3 h 3.818182 v -3 h 3.818182 v 3 h 3.818182 v -3 h 3.818182 v 3 h 3.818182 v -3 h 3.818182 v 3 h 3.818182 v -3 h 3.818182 v 3 h 3.818182 v -3 h 3.818181 v 3 h 3.818182 v -3 h 3.818182 v 3 h 3.818182 v -3 h 3.818182 v 3 h 3.818182 v -3 h 3.818182 v 3 h 1.909091 v 1 h 3 v 2 h -3 v 2 h 3 v 2 h -3 v 2 h 3 v 2 h -3 v 2 h 3 v 2 h -3 v 2 h 3 v 2 h -3 v 2 h 3 v 2 h -3 v 2 h 3 v 2 h -3 v 2 h 3 v 2 h -3 v 2 h 3 v 2 h -3 v 2 h 3 v 2 h -3 v 2 h 3 v 2 h -3 v 1 h -1.909091 v 3 h -3.818182 v -3 h -3.818182 v 3 h -3.818182 v -3 h -3.818182 v 3 h -3.818182 v -3 h -3.818182 v 3 h -3.818181 v -3 h -3.818182 v 3 h -3.818182 v -3 h -3.818182 v 3 H 40.09091 v -3 h -3.818182 v 3 h -3.818182 v -3 h -3.818182 v 3 H 24.818182 V 44 H 21 v 3 h -3.818181 v -3 h -3.818182 v 3 H 9.5454547 v -3 h -3.818182 v 3 H 1.9090909 V 44 H 0 V 43 H -3 V 41 H 0 V 39 H -3 V 37 H 0 V 35 H -3 V 33 H 0 V 31 H -3 V 29 H 0 V 27 H -3 V 25 H 0 V 23 H -3 V 21 H 0 V 19 H -3 V 17 H 0 V 15 H -3 V 13 H 0 V 11 H -3 V 9 H 0 V 7 H -3 V 5 H 0 V 3 H -3 V 1 H 0 V 0"
         inkscape:connector-curvature="0" />
      <path
         style="fill:none;stroke:#0000ff;stroke-width:0.02;stroke-linecap:butt;stroke-linejoin:miter;stroke-miterlimit:4;stroke-dasharray:none"
         id="boxv-longside1"
         d="m 0,47 v -3 m 84,0 v 3 h 3 v 2.25 h -3 v 4.5 h 3 v 4.5 h -3 v 4.5 h 3 v 4.5 h -3 v 4.5 h 3 v 4.5 h -3 v 4.5 h 3 v 4.5 h -3 v 4.5 h 3 v 4.5 h -3 v 4.5 h 3 V 101 h -3 v 3 h -1.909091 v -3 h -3.818182 v 3 h -3.818182 v -3 h -3.818182 v 3 h -3.818182 v -3 H 63 v 3 h -3.818182 v -3 h -3.818182 v 3 h -3.818182 v -3 h -3.818182 v 3 H 43.90909 v -3 h -3.818182 v 3 h -3.818182 v -3 h -3.818182 v 3 h -3.818182 v -3 h -3.818181 v 3 h -3.818182 v -3 h -3.818182 v 3 h -3.818182 v -3 H 9.5454529 v 3 h -3.818182 v -3 H 1.9090891 v 3 H -1.81816e-6 v -3 H -3.0000018 V 98.75 H -1.81816e-6 v -4.5 H -3.0000018 v -4.5 H -1.81816e-6 v -4.5 H -3.0000018 v -4.5 H -1.81816e-6 v -4.5 H -3.0000018 v -4.5 H -1.81816e-6 v -4.5 H -3.0000018 v -4.5 H -1.81816e-6 v -4.5 H -3.0000018 v -4.5 H -1.81816e-6 v -4.5 H -3.0000018 V 47 H -1.81816e-6"
         inkscape:connector-curvature="0" />
      <path
         style="fill:none;stroke:#0000ff;stroke-width:0.02;stroke-linecap:butt;stroke-linejoin:miter;stroke-miterlimit:4;stroke-dasharray:none"
         id="boxv-base"
         d="m 0,104 m 84,0 v 1 h 3 v 2 h -3 v 2 h 3 v 2 h -3 v 2 h 3 v 2 h -3 v 2 h 3 v 2 h -3 v 2 h 3 v 2 h -3 v 2 h 3 v 2 h -3 v 2 h 3 v 2 h -3 v 2 h 3 v 2 h -3 v 2 h 3 v 2 h -3 v 2 h 3 v 2 h -3 v 2 h 3 v 2 h -3 v 1 h -1.909091 v 3 h -3.818182 v -3 h -3.818182 v 3 h -3.818182 v -3 h -3.818182 v 3 H 63 v -3 h -3.818182 v 3 h -3.818182 v -3 h -3.818182 v 3 h -3.818182 v -3 H 43.90909 v 3 h -3.818182 v -3 h -3.818182 v 3 h -3.818182 v -3 h -3.818182 v 3 h -3.818181 v -3 h -3.818182 v 3 h -3.818182 v -3 h -3.818182 v 3 H 9.5454529 v -3 h -3.818182 v 3 H 1.9090891 v -3 H -1.81816e-6 v -1 H -3.0000018 v -2 H -1.81816e-6 v -2 H -3.0000018 v -2 H -1.81816e-6 v -2 H -3.0000018 v -2 H -1.81816e-6 v -2 H -3.0000018 v -2 H -1.81816e-6 v -2 H -3.0000018 v -2 H -1.81816e-6 v -2 H -3.0000018 v -2 H -1.81816e-6 v -2 H -3.0000018 v -2 H -1.81816e-6 v -2 H -3.0000018 v -2 H -1.81816e-6 v -2 H -3.0000018 v -2 H -1.81816e-6 v -2 H -3.0000018 v -2 H -1.81816e-6 v -2 H -3.0000018 v -2 H -1.81816e-6 v -1"
         inkscape:connector-curvature="0" />
      <path
         style="fill:none;stroke:#0000ff;stroke-width:0.02;stroke-linecap:butt;stroke-linejoin:miter;stroke-miterlimit:4;stroke-dasharray:none"
         id="boxv-longside2"
         d="m 0,151 v -3 m 84,0 v 3 h 3 v 2.25 h -3 v 4.5 h 3 v 4.5 h -3 v 4.5 h 3 v 4.5 h -3 v 4.5 h 3 v 4.5 h -3 v 4.5 h 3 v 4.5 h -3 v 4.5 h 3 v 4.5 h -3 v 4.5 h 3 V 205 h -3 v 3 h -1.909091 v -3 h -3.818182 v 3 h -3.818182 v -3 h -3.818182 v 3 h -3.818182 v -3 H 63 v 3 h -3.818182 v -3 h -3.818182 v 3 h -3.818182 v -3 h -3.818182 v 3 H 43.90909 v -3 h -3.818182 v 3 h -3.818182 v -3 h -3.818182 v 3 h -3.818182 v -3 h -3.818181 v 3 h -3.818182 v -3 h -3.818182 v 3 h -3.818182 v -3 H 9.5454529 v 3 h -3.818182 v -3 H 1.9090891 v 3 H -1.81816e-6 v -3 H -3.0000018 v -2.25 H -1.81816e-6 v -4.5 H -3.0000018 v -4.5 H -1.81816e-6 v -4.5 H -3.0000018 v -4.5 H -1.81816e-6 v -4.5 H -3.0000018 v -4.5 H -1.81816e-6 v -4.5 H -3.0000018 v -4.5 H -1.81816e-6 v -4.5 H -3.0000018 v -4.5 H -1.81816e-6 v -4.5 H -3.0000018 V 151 H -1.81816e-6"
         inkscape:connector-curvature="0" />
      <path
         style="fill:none;stroke:#0000ff;stroke-width:0.02;stroke-linecap:butt;stroke-linejoin:miter;stroke-miterlimit:4;stroke-dasharray:none"
         id="boxv-endface2"
         d="m 84,0 h 5.25 v -3 h 4.5 v 3 h 4.5 v -3 h 4.5 v 3 h 4.5 v -3 h 4.5 v 3 h 4.5 v -3 h 4.5 v 3 h 4.5 v -3 h 4.5 v 3 h 4.5 v -3 h 4.5 V 0 H 144 v 1 h -3 v 2 h 3 v 2 h -3 v 2 h 3 v 2 h -3 v 2 h 3 v 2 h -3 v 2 h 3 v 2 h -3 v 2 h 3 v 2 h -3 v 2 h 3 v 2 h -3 v 2 h 3 v 2 h -3 v 2 h 3 v 2 h -3 v 2 h 3 v 2 h -3 v 2 h 3 v 2 h -3 v 2 h 3 v 1 h -5.25 v 3 h -4.5 v -3 h -4.5 v 3 h -4.5 v -3 h -4.5 v 3 h -4.5 v -3 h -4.5 v 3 h -4.5 v -3 h -4.5 v 3 h -4.5 v -3 h -4.5 v 3 h -4.5 V 44 H 87 84"
         inkscape:connector-curvature="0" />
      <path
         style="fill:none;stroke:#0000ff;stroke-width:0.02;stroke-linecap:butt;stroke-linejoin:miter;stroke-miterlimit:4;stroke-dasharray:none"
         id="boxv-endface1"
         d="m 84,104 h 5.25 v -3 h 4.5 v 3 h 4.5 v -3 h 4.5 v 3 h 4.5 v -3 h 4.5 v 3 h 4.5 v -3 h 4.5 v 3 h 4.5 v -3 h 4.5 v 3 h 4.5 v -3 h 4.5 v 3 H 144 v 1 h -3 v 2 h 3 v 2 h -3 v 2 h 3 v 2 h -3 v 2 h 3 v 2 h -3 v 2 h 3 v 2 h -3 v 2 h 3 v 2 h -3 v 2 h 3 v 2 h -3 v 2 h 3 v 2 h -3 v 2 h 3 v 2 h -3 v 2 h 3 v 2 h -3 v 2 h 3 v 2 h -3 v 2 h 3 v 1 h -5.25 v 3 h -4.5 v -3 h -4.5 v 3 h -4.5 v -3 h -4.5 v 3 h -4.5 v -3 h -4.5 v 3 h -4.5 v -3 h -4.5 v 3 h -4.5 v -3 h -4.5 v 3 h -4.5 v -3 H 87 84"
         inkscape:connector-curvature="0" />
    </g>
    <g
       id="box6"
       transform="translate(38,-4.5)"
       style="stroke-width:0.02;stroke-miterlimit:4;stroke-dasharray:none">
      <path
         d="m 0,0 h 1.9090909 v -3 h 3.8181818 v 3 h 3.818182 v -3 h 3.8181823 v 3 h 3.818182 V -3 H 21 v 3 h 3.818182 v -3 h 3.818182 v 3 h 3.818182 v -3 h 3.818182 v 3 h 3.818182 v -3 h 3.818182 v 3 h 3.818182 v -3 h 3.818182 v 3 h 3.818182 v -3 h 3.818181 v 3 h 3.818182 v -3 h 3.818182 v 3 h 3.818182 v -3 h 3.818182 v 3 h 3.818182 v -3 h 3.818182 v 3 h 1.909091 v 1 h 3 v 2 h -3 v 2 h 3 v 2 h -3 v 2 h 3 v 2 h -3 v 2 h 3 v 2 h -3 v 2 h 3 v 2 h -3 v 2 h 3 v 2 h -3 v 2 h 3 v 2 h -3 v 2 h 3 v 2 h -3 v 2 h 3 v 2 h -3 v 2 h 3 v 2 h -3 v 2 h 3 v 2 h -3 v 1 h -1.909091 v 3 h -3.818182 v -3 h -3.818182 v 3 h -3.818182 v -3 h -3.818182 v 3 h -3.818182 v -3 h -3.818182 v 3 h -3.818181 v -3 h -3.818182 v 3 h -3.818182 v -3 h -3.818182 v 3 H 40.09091 v -3 h -3.818182 v 3 h -3.818182 v -3 h -3.818182 v 3 H 24.818182 V 44 H 21 v 3 h -3.818181 v -3 h -3.818182 v 3 H 9.5454547 v -3 h -3.818182 v 3 H 1.9090909 V 44 H 0 V 43 H -3 V 41 H 0 V 39 H -3 V 37 H 0 V 35 H -3 V 33 H 0 V 31 H -3 V 29 H 0 V 27 H -3 V 25 H 0 V 23 H -3 V 21 H 0 V 19 H -3 V 17 H 0 V 15 H -3 V 13 H 0 V 11 H -3 V 9 H 0 V 7 H -3 V 5 H 0 V 3 H -3 V 1 H 0 V 0"
         id="box6-lid"
         style="fill:none;stroke:#0000ff;stroke-width:0.02;stroke-linecap:butt;stroke-linejoin:miter;stroke-miterlimit:4;stroke-dasharray:none"
         inkscape:connector-curvature="0" />
      <path
         d="m 0,47 v -3 m 84,0 v 3 h 3 v 2.25 h -3 v 4.5 h 3 v 4.5 h -3 v 4.5 h 3 v 4.5 h -3 v 4.5 h 3 v 4.5 h -3 v 4.5 h 3 v 4.5 h -3 v 4.5 h 3 v 4.5 h -3 v 4.5 h 3 V 101 h -3 v 3 h -1.909091 v -3 h -3.818182 v 3 h -3.818182 v -3 h -3.818182 v 3 h -3.818182 v -3 H 63 v 3 h -3.818182 v -3 h -3.818182 v 3 h -3.818182 v -3 h -3.818182 v 3 H 43.90909 v -3 h -3.818182 v 3 h -3.818182 v -3 h -3.818182 v 3 h -3.818182 v -3 h -3.818181 v 3 h -3.818182 v -3 h -3.818182 v 3 h -3.818182 v -3 H 9.5454529 v 3 h -3.818182 v -3 H 1.9090891 v 3 H -1.81816e-6 v -3 H -3.0000018 V 98.75 H -1.81816e-6 v -4.5 H -3.0000018 v -4.5 H -1.81816e-6 v -4.5 H -3.0000018 v -4.5 H -1.81816e-6 v -4.5 H -3.0000018 v -4.5 H -1.81816e-6 v -4.5 H -3.0000018 v -4.5 H -1.81816e-6 v -4.5 H -3.0000018 v -4.5 H -1.81816e-6 v -4.5 H -3.0000018 V 47 H -1.81816e-6"
         id="box6-longside1"
         style="fill:none;stroke:#0000ff;stroke-width:0.02;stroke-linecap:butt;stroke-linejoin:miter;stroke-miterlimit:4;stroke-dasharray:none"
         inkscape:connector-curvature="0" />
      <path
         d="m 0,104 m 84,0 v 1 h 3 v 2 h -3 v 2 h 3 v 2 h -3 v 2 h 3 v 2 h -3 v 2 h 3 v 2 h -3 v 2 h 3 v 2 h -3 v 2 h 3 v 2 h -3 v 2 h 3 v 2 h -3 v 2 h 3 v 2 h -3 v 2 h 3 v 2 h -3 v 2 h 3 v 2 h -3 v 2 h 3 v 2 h -3 v 1 h -1.909091 v 3 h -3.818182 v -3 h -3.818182 v 3 h -3.818182 v -3 h -3.818182 v 3 H 63 v -3 h -3.818182 v 3 h -3.818182 v -3 h -3.818182 v 3 h -3.818182 v -3 H 43.90909 v 3 h -3.818182 v -3 h -3.818182 v 3 h -3.818182 v -3 h -3.818182 v 3 h -3.818181 v -3 h -3.818182 v 3 h -3.818182 v -3 h -3.818182 v 3 H 9.5454529 v -3 h -3.818182 v 3 H 1.9090891 v -3 H -1.81816e-6 v -1 H -3.0000018 v -2 H -1.81816e-6 v -2 H -3.0000018 v -2 H -1.81816e-6 v -2 H -3.0000018 v -2 H -1.81816e-6 v -2 H -3.0000018 v -2 H -1.81816e-6 v -2 H -3.0000018 v -2 H -1.81816e-6 v -2 H -3.0000018 v -2 H -1.81816e-6 v -2 H -3.0000018 v -2 H -1.81816e-6 v -2 H -3.0000018 v -2 H -1.81816e-6 v -2 H -3.0000018 v -2 H -1.81816e-6 v -2 H -3.0000018 v -2 H -1.81816e-6 v -2 H -3.0000018 v -2 H -1.81816e-6 v -1"
         id="box6-base"
         style="fill:none;stroke:#0000ff;stroke-width:0.02;stroke-linecap:butt;stroke-linejoin:miter;stroke-miterlimit:4;stroke-dasharray:none"
         inkscape:connector-curvature="0" />
      <path
         d="m 0,151 v -3 m 84,0 v 3 h 3 v 2.25 h -3 v 4.5 h 3 v 4.5 h -3 v 4.5 h 3 v 4.5 h -3 v 4.5 h 3 v 4.5 h -3 v 4.5 h 3 v 4.5 h -3 v 4.5 h 3 v 4.5 h -3 v 4.5 h 3 V 205 h -3 v 3 h -1.909091 v -3 h -3.818182 v 3 h -3.818182 v -3 h -3.818182 v 3 h -3.818182 v -3 H 63 v 3 h -3.818182 v -3 h -3.818182 v 3 h -3.818182 v -3 h -3.818182 v 3 H 43.90909 v -3 h -3.818182 v 3 h -3.818182 v -3 h -3.818182 v 3 h -3.818182 v -3 h -3.818181 v 3 h -3.818182 v -3 h -3.818182 v 3 h -3.818182 v -3 H 9.5454529 v 3 h -3.818182 v -3 H 1.9090891 v 3 H -1.81816e-6 v -3 H -3.0000018 v -2.25 H -1.81816e-6 v -4.5 H -3.0000018 v -4.5 H -1.81816e-6 v -4.5 H -3.0000018 v -4.5 H -1.81816e-6 v -4.5 H -3.0000018 v -4.5 H -1.81816e-6 v -4.5 H -3.0000018 v -4.5 H -1.81816e-6 v -4.5 H -3.0000018 v -4.5 H -1.81816e-6 v -4.5 H -3.0000018 V 151 H -1.81816e-6"
         id="box6-longside2"
         style="fill:none;stroke:#0000ff;stroke-width:0.02;stroke-linecap:butt;stroke-linejoin:miter;stroke-miterlimit:4;stroke-dasharray:none"
         inkscape:connector-curvature="0" />
      <path
         d="m 84,0 h 5.25 v -3 h 4.5 v 3 h 4.5 v -3 h 4.5 v 3 h 4.5 v -3 h 4.5 v 3 h 4.5 v -3 h 4.5 v 3 h 4.5 v -3 h 4.5 v 3 h 4.5 v -3 h 4.5 V 0 H 144 v 1 h -3 v 2 h 3 v 2 h -3 v 2 h 3 v 2 h -3 v 2 h 3 v 2 h -3 v 2 h 3 v 2 h -3 v 2 h 3 v 2 h -3 v 2 h 3 v 2 h -3 v 2 h 3 v 2 h -3 v 2 h 3 v 2 h -3 v 2 h 3 v 2 h -3 v 2 h 3 v 2 h -3 v 2 h 3 v 1 h -5.25 v 3 h -4.5 v -3 h -4.5 v 3 h -4.5 v -3 h -4.5 v 3 h -4.5 v -3 h -4.5 v 3 h -4.5 v -3 h -4.5 v 3 h -4.5 v -3 h -4.5 v 3 h -4.5 V 44 H 87 84"
         id="box6-endface2"
         style="fill:none;stroke:#0000ff;stroke-width:0.02;stroke-linecap:butt;stroke-linejoin:miter;stroke-miterlimit:4;stroke-dasharray:none"
         inkscape:connector-curvature="0" />
      <path
         d="m 84,104 h 5.25 v -3 h 4.5 v 3 h 4.5 v -3 h 4.5 v 3 h 4.5 v -3 h 4.5 v 3 h 4.5 v -3 h 4.5 v 3 h 4.5 v -3 h 4.5 v 3 h 4.5 v -3 h 4.5 v 3 H 144 v 1 h -3 v 2 h 3 v 2 h -3 v 2 h 3 v 2 h -3 v 2 h 3 v 2 h -3 v 2 h 3 v 2 h -3 v 2 h 3 v 2 h -3 v 2 h 3 v 2 h -3 v 2 h 3 v 2 h -3 v 2 h 3 v 2 h -3 v 2 h 3 v 2 h -3 v 2 h 3 v 2 h -3 v 2 h 3 v 1 h -5.25 v 3 h -4.5 v -3 h -4.5 v 3 h -4.5 v -3 h -4.5 v 3 h -4.5 v -3 h -4.5 v 3 h -4.5 v -3 h -4.5 v 3 h -4.5 v -3 h -4.5 v 3 h -4.5 v -3 H 87 84"
         id="box6-endface1"
         style="fill:none;stroke:#0000ff;stroke-width:0.02;stroke-linecap:butt;stroke-linejoin:miter;stroke-miterlimit:4;stroke-dasharray:none"
         inkscape:connector-curvature="0" />
    </g>
    <g
       transform="translate(38,-4.5)"
       id="box5"
       style="stroke-width:0.02;stroke-miterlimit:4;stroke-dasharray:none">
      <path
         style="fill:none;stroke:#0000ff;stroke-width:0.02;stroke-linecap:butt;stroke-linejoin:miter;stroke-miterlimit:4;stroke-dasharray:none"
         id="box5-lid"
         d="m 0,0 h 1.9090909 v -3 h 3.8181818 v 3 h 3.818182 v -3 h 3.8181823 v 3 h 3.818182 V -3 H 21 v 3 h 3.818182 v -3 h 3.818182 v 3 h 3.818182 v -3 h 3.818182 v 3 h 3.818182 v -3 h 3.818182 v 3 h 3.818182 v -3 h 3.818182 v 3 h 3.818182 v -3 h 3.818181 v 3 h 3.818182 v -3 h 3.818182 v 3 h 3.818182 v -3 h 3.818182 v 3 h 3.818182 v -3 h 3.818182 v 3 h 1.909091 v 1 h 3 v 2 h -3 v 2 h 3 v 2 h -3 v 2 h 3 v 2 h -3 v 2 h 3 v 2 h -3 v 2 h 3 v 2 h -3 v 2 h 3 v 2 h -3 v 2 h 3 v 2 h -3 v 2 h 3 v 2 h -3 v 2 h 3 v 2 h -3 v 2 h 3 v 2 h -3 v 2 h 3 v 2 h -3 v 1 h -1.909091 v 3 h -3.818182 v -3 h -3.818182 v 3 h -3.818182 v -3 h -3.818182 v 3 h -3.818182 v -3 h -3.818182 v 3 h -3.818181 v -3 h -3.818182 v 3 h -3.818182 v -3 h -3.818182 v 3 H 40.09091 v -3 h -3.818182 v 3 h -3.818182 v -3 h -3.818182 v 3 H 24.818182 V 44 H 21 v 3 h -3.818181 v -3 h -3.818182 v 3 H 9.5454547 v -3 h -3.818182 v 3 H 1.9090909 V 44 H 0 V 43 H -3 V 41 H 0 V 39 H -3 V 37 H 0 V 35 H -3 V 33 H 0 V 31 H -3 V 29 H 0 V 27 H -3 V 25 H 0 V 23 H -3 V 21 H 0 V 19 H -3 V 17 H 0 V 15 H -3 V 13 H 0 V 11 H -3 V 9 H 0 V 7 H -3 V 5 H 0 V 3 H -3 V 1 H 0 V 0"
         inkscape:connector-curvature="0" />
      <path
         style="fill:none;stroke:#0000ff;stroke-width:0.02;stroke-linecap:butt;stroke-linejoin:miter;stroke-miterlimit:4;stroke-dasharray:none"
         id="box5-longside1"
         d="m 0,47 v -3 m 84,0 v 3 h 3 v 2.25 h -3 v 4.5 h 3 v 4.5 h -3 v 4.5 h 3 v 4.5 h -3 v 4.5 h 3 v 4.5 h -3 v 4.5 h 3 v 4.5 h -3 v 4.5 h 3 v 4.5 h -3 v 4.5 h 3 V 101 h -3 v 3 h -1.909091 v -3 h -3.818182 v 3 h -3.818182 v -3 h -3.818182 v 3 h -3.818182 v -3 H 63 v 3 h -3.818182 v -3 h -3.818182 v 3 h -3.818182 v -3 h -3.818182 v 3 H 43.90909 v -3 h -3.818182 v 3 h -3.818182 v -3 h -3.818182 v 3 h -3.818182 v -3 h -3.818181 v 3 h -3.818182 v -3 h -3.818182 v 3 h -3.818182 v -3 H 9.5454529 v 3 h -3.818182 v -3 H 1.9090891 v 3 H -1.81816e-6 v -3 H -3.0000018 V 98.75 H -1.81816e-6 v -4.5 H -3.0000018 v -4.5 H -1.81816e-6 v -4.5 H -3.0000018 v -4.5 H -1.81816e-6 v -4.5 H -3.0000018 v -4.5 H -1.81816e-6 v -4.5 H -3.0000018 v -4.5 H -1.81816e-6 v -4.5 H -3.0000018 v -4.5 H -1.81816e-6 v -4.5 H -3.0000018 V 47 H -1.81816e-6"
         inkscape:connector-curvature="0" />
      <path
         style="fill:none;stroke:#0000ff;stroke-width:0.02;stroke-linecap:butt;stroke-linejoin:miter;stroke-miterlimit:4;stroke-dasharray:none"
         id="box5-base"
         d="m 0,104 m 84,0 v 1 h 3 v 2 h -3 v 2 h 3 v 2 h -3 v 2 h 3 v 2 h -3 v 2 h 3 v 2 h -3 v 2 h 3 v 2 h -3 v 2 h 3 v 2 h -3 v 2 h 3 v 2 h -3 v 2 h 3 v 2 h -3 v 2 h 3 v 2 h -3 v 2 h 3 v 2 h -3 v 2 h 3 v 2 h -3 v 1 h -1.909091 v 3 h -3.818182 v -3 h -3.818182 v 3 h -3.818182 v -3 h -3.818182 v 3 H 63 v -3 h -3.818182 v 3 h -3.818182 v -3 h -3.818182 v 3 h -3.818182 v -3 H 43.90909 v 3 h -3.818182 v -3 h -3.818182 v 3 h -3.818182 v -3 h -3.818182 v 3 h -3.818181 v -3 h -3.818182 v 3 h -3.818182 v -3 h -3.818182 v 3 H 9.5454529 v -3 h -3.818182 v 3 H 1.9090891 v -3 H -1.81816e-6 v -1 H -3.0000018 v -2 H -1.81816e-6 v -2 H -3.0000018 v -2 H -1.81816e-6 v -2 H -3.0000018 v -2 H -1.81816e-6 v -2 H -3.0000018 v -2 H -1.81816e-6 v -2 H -3.0000018 v -2 H -1.81816e-6 v -2 H -3.0000018 v -2 H -1.81816e-6 v -2 H -3.0000018 v -2 H -1.81816e-6 v -2 H -3.0000018 v -2 H -1.81816e-6 v -2 H -3.0000018 v -2 H -1.81816e-6 v -2 H -3.0000018 v -2 H -1.81816e-6 v -2 H -3.0000018 v -2 H -1.81816e-6 v -1"
         inkscape:connector-curvature="0" />
      <path
         style="fill:none;stroke:#0000ff;stroke-width:0.02;stroke-linecap:butt;stroke-linejoin:miter;stroke-miterlimit:4;stroke-dasharray:none"
         id="box5-longside2"
         d="m 0,151 v -3 m 84,0 v 3 h 3 v 2.25 h -3 v 4.5 h 3 v 4.5 h -3 v 4.5 h 3 v 4.5 h -3 v 4.5 h 3 v 4.5 h -3 v 4.5 h 3 v 4.5 h -3 v 4.5 h 3 v 4.5 h -3 v 4.5 h 3 V 205 h -3 v 3 h -1.909091 v -3 h -3.818182 v 3 h -3.818182 v -3 h -3.818182 v 3 h -3.818182 v -3 H 63 v 3 h -3.818182 v -3 h -3.818182 v 3 h -3.818182 v -3 h -3.818182 v 3 H 43.90909 v -3 h -3.818182 v 3 h -3.818182 v -3 h -3.818182 v 3 h -3.818182 v -3 h -3.818181 v 3 h -3.818182 v -3 h -3.818182 v 3 h -3.818182 v -3 H 9.5454529 v 3 h -3.818182 v -3 H 1.9090891 v 3 H -1.81816e-6 v -3 H -3.0000018 v -2.25 H -1.81816e-6 v -4.5 H -3.0000018 v -4.5 H -1.81816e-6 v -4.5 H -3.0000018 v -4.5 H -1.81816e-6 v -4.5 H -3.0000018 v -4.5 H -1.81816e-6 v -4.5 H -3.0000018 v -4.5 H -1.81816e-6 v -4.5 H -3.0000018 v -4.5 H -1.81816e-6 v -4.5 H -3.0000018 V 151 H -1.81816e-6"
         inkscape:connector-curvature="0" />
      <path
         style="fill:none;stroke:#0000ff;stroke-width:0.02;stroke-linecap:butt;stroke-linejoin:miter;stroke-miterlimit:4;stroke-dasharray:none"
         id="box5-endface2"
         d="m 84,0 h 5.25 v -3 h 4.5 v 3 h 4.5 v -3 h 4.5 v 3 h 4.5 v -3 h 4.5 v 3 h 4.5 v -3 h 4.5 v 3 h 4.5 v -3 h 4.5 v 3 h 4.5 v -3 h 4.5 V 0 H 144 v 1 h -3 v 2 h 3 v 2 h -3 v 2 h 3 v 2 h -3 v 2 h 3 v 2 h -3 v 2 h 3 v 2 h -3 v 2 h 3 v 2 h -3 v 2 h 3 v 2 h -3 v 2 h 3 v 2 h -3 v 2 h 3 v 2 h -3 v 2 h 3 v 2 h -3 v 2 h 3 v 2 h -3 v 2 h 3 v 1 h -5.25 v 3 h -4.5 v -3 h -4.5 v 3 h -4.5 v -3 h -4.5 v 3 h -4.5 v -3 h -4.5 v 3 h -4.5 v -3 h -4.5 v 3 h -4.5 v -3 h -4.5 v 3 h -4.5 V 44 H 87 84"
         inkscape:connector-curvature="0" />
      <path
         style="fill:none;stroke:#0000ff;stroke-width:0.02;stroke-linecap:butt;stroke-linejoin:miter;stroke-miterlimit:4;stroke-dasharray:none"
         id="box5-endface1"
         d="m 84,104 h 5.25 v -3 h 4.5 v 3 h 4.5 v -3 h 4.5 v 3 h 4.5 v -3 h 4.5 v 3 h 4.5 v -3 h 4.5 v 3 h 4.5 v -3 h 4.5 v 3 h 4.5 v -3 h 4.5 v 3 H 144 v 1 h -3 v 2 h 3 v 2 h -3 v 2 h 3 v 2 h -3 v 2 h 3 v 2 h -3 v 2 h 3 v 2 h -3 v 2 h 3 v 2 h -3 v 2 h 3 v 2 h -3 v 2 h 3 v 2 h -3 v 2 h 3 v 2 h -3 v 2 h 3 v 2 h -3 v 2 h 3 v 2 h -3 v 2 h 3 v 1 h -5.25 v 3 h -4.5 v -3 h -4.5 v 3 h -4.5 v -3 h -4.5 v 3 h -4.5 v -3 h -4.5 v 3 h -4.5 v -3 h -4.5 v 3 h -4.5 v -3 h -4.5 v 3 h -4.5 v -3 H 87 84"
         inkscape:connector-curvature="0" />
    </g>
    <g
       id="boxF"
       transform="translate(38,-4.5)"
       style="stroke-width:0.02;stroke-miterlimit:4;stroke-dasharray:none">
      <path
         d="m 0,0 h 1.9090909 v -3 h 3.8181818 v 3 h 3.818182 v -3 h 3.8181823 v 3 h 3.818182 V -3 H 21 v 3 h 3.818182 v -3 h 3.818182 v 3 h 3.818182 v -3 h 3.818182 v 3 h 3.818182 v -3 h 3.818182 v 3 h 3.818182 v -3 h 3.818182 v 3 h 3.818182 v -3 h 3.818181 v 3 h 3.818182 v -3 h 3.818182 v 3 h 3.818182 v -3 h 3.818182 v 3 h 3.818182 v -3 h 3.818182 v 3 h 1.909091 v 1 h 3 v 2 h -3 v 2 h 3 v 2 h -3 v 2 h 3 v 2 h -3 v 2 h 3 v 2 h -3 v 2 h 3 v 2 h -3 v 2 h 3 v 2 h -3 v 2 h 3 v 2 h -3 v 2 h 3 v 2 h -3 v 2 h 3 v 2 h -3 v 2 h 3 v 2 h -3 v 2 h 3 v 2 h -3 v 1 h -1.909091 v 3 h -3.818182 v -3 h -3.818182 v 3 h -3.818182 v -3 h -3.818182 v 3 h -3.818182 v -3 h -3.818182 v 3 h -3.818181 v -3 h -3.818182 v 3 h -3.818182 v -3 h -3.818182 v 3 H 40.09091 v -3 h -3.818182 v 3 h -3.818182 v -3 h -3.818182 v 3 H 24.818182 V 44 H 21 v 3 h -3.818181 v -3 h -3.818182 v 3 H 9.5454547 v -3 h -3.818182 v 3 H 1.9090909 V 44 H 0 V 43 H -3 V 41 H 0 V 39 H -3 V 37 H 0 V 35 H -3 V 33 H 0 V 31 H -3 V 29 H 0 V 27 H -3 V 25 H 0 V 23 H -3 V 21 H 0 V 19 H -3 V 17 H 0 V 15 H -3 V 13 H 0 V 11 H -3 V 9 H 0 V 7 H -3 V 5 H 0 V 3 H -3 V 1 H 0 V 0"
         id="boxF-lid"
         style="fill:none;stroke:#0000ff;stroke-width:0.02;stroke-linecap:butt;stroke-linejoin:miter;stroke-miterlimit:4;stroke-dasharray:none"
         inkscape:connector-curvature="0" />
      <path
         d="m 0,47 v -3 m 84,0 v 3 h 3 v 2.25 h -3 v 4.5 h 3 v 4.5 h -3 v 4.5 h 3 v 4.5 h -3 v 4.5 h 3 v 4.5 h -3 v 4.5 h 3 v 4.5 h -3 v 4.5 h 3 v 4.5 h -3 v 4.5 h 3 V 101 h -3 v 3 h -1.909091 v -3 h -3.818182 v 3 h -3.818182 v -3 h -3.818182 v 3 h -3.818182 v -3 H 63 v 3 h -3.818182 v -3 h -3.818182 v 3 h -3.818182 v -3 h -3.818182 v 3 H 43.90909 v -3 h -3.818182 v 3 h -3.818182 v -3 h -3.818182 v 3 h -3.818182 v -3 h -3.818181 v 3 h -3.818182 v -3 h -3.818182 v 3 h -3.818182 v -3 H 9.5454529 v 3 h -3.818182 v -3 H 1.9090891 v 3 H -1.81816e-6 v -3 H -3.0000018 V 98.75 H -1.81816e-6 v -4.5 H -3.0000018 v -4.5 H -1.81816e-6 v -4.5 H -3.0000018 v -4.5 H -1.81816e-6 v -4.5 H -3.0000018 v -4.5 H -1.81816e-6 v -4.5 H -3.0000018 v -4.5 H -1.81816e-6 v -4.5 H -3.0000018 v -4.5 H -1.81816e-6 v -4.5 H -3.0000018 V 47 H -1.81816e-6"
         id="boxF-longside1"
         style="fill:none;stroke:#0000ff;stroke-width:0.02;stroke-linecap:butt;stroke-linejoin:miter;stroke-miterlimit:4;stroke-dasharray:none"
         inkscape:connector-curvature="0" />
      <path
         d="m 0,104 m 84,0 v 1 h 3 v 2 h -3 v 2 h 3 v 2 h -3 v 2 h 3 v 2 h -3 v 2 h 3 v 2 h -3 v 2 h 3 v 2 h -3 v 2 h 3 v 2 h -3 v 2 h 3 v 2 h -3 v 2 h 3 v 2 h -3 v 2 h 3 v 2 h -3 v 2 h 3 v 2 h -3 v 2 h 3 v 2 h -3 v 1 h -1.909091 v 3 h -3.818182 v -3 h -3.818182 v 3 h -3.818182 v -3 h -3.818182 v 3 H 63 v -3 h -3.818182 v 3 h -3.818182 v -3 h -3.818182 v 3 h -3.818182 v -3 H 43.90909 v 3 h -3.818182 v -3 h -3.818182 v 3 h -3.818182 v -3 h -3.818182 v 3 h -3.818181 v -3 h -3.818182 v 3 h -3.818182 v -3 h -3.818182 v 3 H 9.5454529 v -3 h -3.818182 v 3 H 1.9090891 v -3 H -1.81816e-6 v -1 H -3.0000018 v -2 H -1.81816e-6 v -2 H -3.0000018 v -2 H -1.81816e-6 v -2 H -3.0000018 v -2 H -1.81816e-6 v -2 H -3.0000018 v -2 H -1.81816e-6 v -2 H -3.0000018 v -2 H -1.81816e-6 v -2 H -3.0000018 v -2 H -1.81816e-6 v -2 H -3.0000018 v -2 H -1.81816e-6 v -2 H -3.0000018 v -2 H -1.81816e-6 v -2 H -3.0000018 v -2 H -1.81816e-6 v -2 H -3.0000018 v -2 H -1.81816e-6 v -2 H -3.0000018 v -2 H -1.81816e-6 v -1"
         id="boxF-base"
         style="fill:none;stroke:#0000ff;stroke-width:0.02;stroke-linecap:butt;stroke-linejoin:miter;stroke-miterlimit:4;stroke-dasharray:none"
         inkscape:connector-curvature="0" />
      <path
         d="m 0,151 v -3 m 84,0 v 3 h 3 v 2.25 h -3 v 4.5 h 3 v 4.5 h -3 v 4.5 h 3 v 4.5 h -3 v 4.5 h 3 v 4.5 h -3 v 4.5 h 3 v 4.5 h -3 v 4.5 h 3 v 4.5 h -3 v 4.5 h 3 V 205 h -3 v 3 h -1.909091 v -3 h -3.818182 v 3 h -3.818182 v -3 h -3.818182 v 3 h -3.818182 v -3 H 63 v 3 h -3.818182 v -3 h -3.818182 v 3 h -3.818182 v -3 h -3.818182 v 3 H 43.90909 v -3 h -3.818182 v 3 h -3.818182 v -3 h -3.818182 v 3 h -3.818182 v -3 h -3.818181 v 3 h -3.818182 v -3 h -3.818182 v 3 h -3.818182 v -3 H 9.5454529 v 3 h -3.818182 v -3 H 1.9090891 v 3 H -1.81816e-6 v -3 H -3.0000018 v -2.25 H -1.81816e-6 v -4.5 H -3.0000018 v -4.5 H -1.81816e-6 v -4.5 H -3.0000018 v -4.5 H -1.81816e-6 v -4.5 H -3.0000018 v -4.5 H -1.81816e-6 v -4.5 H -3.0000018 v -4.5 H -1.81816e-6 v -4.5 H -3.0000018 v -4.5 H -1.81816e-6 v -4.5 H -3.0000018 V 151 H -1.81816e-6"
         id="boxF-longside2"
         style="fill:none;stroke:#0000ff;stroke-width:0.02;stroke-linecap:butt;stroke-linejoin:miter;stroke-miterlimit:4;stroke-dasharray:none"
         inkscape:connector-curvature="0" />
      <path
         d="m 84,0 h 5.25 v -3 h 4.5 v 3 h 4.5 v -3 h 4.5 v 3 h 4.5 v -3 h 4.5 v 3 h 4.5 v -3 h 4.5 v 3 h 4.5 v -3 h 4.5 v 3 h 4.5 v -3 h 4.5 V 0 H 144 v 1 h -3 v 2 h 3 v 2 h -3 v 2 h 3 v 2 h -3 v 2 h 3 v 2 h -3 v 2 h 3 v 2 h -3 v 2 h 3 v 2 h -3 v 2 h 3 v 2 h -3 v 2 h 3 v 2 h -3 v 2 h 3 v 2 h -3 v 2 h 3 v 2 h -3 v 2 h 3 v 2 h -3 v 2 h 3 v 1 h -5.25 v 3 h -4.5 v -3 h -4.5 v 3 h -4.5 v -3 h -4.5 v 3 h -4.5 v -3 h -4.5 v 3 h -4.5 v -3 h -4.5 v 3 h -4.5 v -3 h -4.5 v 3 h -4.5 V 44 H 87 84"
         id="boxF-endface2"
         style="fill:none;stroke:#0000ff;stroke-width:0.02;stroke-linecap:butt;stroke-linejoin:miter;stroke-miterlimit:4;stroke-dasharray:none"
         inkscape:connector-curvature="0" />
      <path
         d="m 84,104 h 5.25 v -3 h 4.5 v 3 h 4.5 v -3 h 4.5 v 3 h 4.5 v -3 h 4.5 v 3 h 4.5 v -3 h 4.5 v 3 h 4.5 v -3 h 4.5 v 3 h 4.5 v -3 h 4.5 v 3 H 144 v 1 h -3 v 2 h 3 v 2 h -3 v 2 h 3 v 2 h -3 v 2 h 3 v 2 h -3 v 2 h 3 v 2 h -3 v 2 h 3 v 2 h -3 v 2 h 3 v 2 h -3 v 2 h 3 v 2 h -3 v 2 h 3 v 2 h -3 v 2 h 3 v 2 h -3 v 2 h 3 v 2 h -3 v 2 h 3 v 1 h -5.25 v 3 h -4.5 v -3 h -4.5 v 3 h -4.5 v -3 h -4.5 v 3 h -4.5 v -3 h -4.5 v 3 h -4.5 v -3 h -4.5 v 3 h -4.5 v -3 h -4.5 v 3 h -4.5 v -3 H 87 84"
         id="boxF-endface1"
         style="fill:none;stroke:#0000ff;stroke-width:0.02;stroke-linecap:butt;stroke-linejoin:miter;stroke-miterlimit:4;stroke-dasharray:none"
         inkscape:connector-curvature="0" />
    </g>
    <g
       transform="translate(38,-4.5)"
       id="boxa"
       style="stroke-width:0.02;stroke-miterlimit:4;stroke-dasharray:none">
      <path
         style="fill:none;stroke:#0000ff;stroke-width:0.02;stroke-linecap:butt;stroke-linejoin:miter;stroke-miterlimit:4;stroke-dasharray:none"
         id="boxa-lid"
         d="m 0,0 h 1.9090909 v -3 h 3.8181818 v 3 h 3.818182 v -3 h 3.8181823 v 3 h 3.818182 V -3 H 21 v 3 h 3.818182 v -3 h 3.818182 v 3 h 3.818182 v -3 h 3.818182 v 3 h 3.818182 v -3 h 3.818182 v 3 h 3.818182 v -3 h 3.818182 v 3 h 3.818182 v -3 h 3.818181 v 3 h 3.818182 v -3 h 3.818182 v 3 h 3.818182 v -3 h 3.818182 v 3 h 3.818182 v -3 h 3.818182 v 3 h 1.909091 v 1 h 3 v 2 h -3 v 2 h 3 v 2 h -3 v 2 h 3 v 2 h -3 v 2 h 3 v 2 h -3 v 2 h 3 v 2 h -3 v 2 h 3 v 2 h -3 v 2 h 3 v 2 h -3 v 2 h 3 v 2 h -3 v 2 h 3 v 2 h -3 v 2 h 3 v 2 h -3 v 2 h 3 v 2 h -3 v 1 h -1.909091 v 3 h -3.818182 v -3 h -3.818182 v 3 h -3.818182 v -3 h -3.818182 v 3 h -3.818182 v -3 h -3.818182 v 3 h -3.818181 v -3 h -3.818182 v 3 h -3.818182 v -3 h -3.818182 v 3 H 40.09091 v -3 h -3.818182 v 3 h -3.818182 v -3 h -3.818182 v 3 H 24.818182 V 44 H 21 v 3 h -3.818181 v -3 h -3.818182 v 3 H 9.5454547 v -3 h -3.818182 v 3 H 1.9090909 V 44 H 0 V 43 H -3 V 41 H 0 V 39 H -3 V 37 H 0 V 35 H -3 V 33 H 0 V 31 H -3 V 29 H 0 V 27 H -3 V 25 H 0 V 23 H -3 V 21 H 0 V 19 H -3 V 17 H 0 V 15 H -3 V 13 H 0 V 11 H -3 V 9 H 0 V 7 H -3 V 5 H 0 V 3 H -3 V 1 H 0 V 0"
         inkscape:connector-curvature="0" />
      <path
         style="fill:none;stroke:#0000ff;stroke-width:0.02;stroke-linecap:butt;stroke-linejoin:miter;stroke-miterlimit:4;stroke-dasharray:none"
         id="boxa-longside1"
         d="m 0,47 v -3 m 84,0 v 3 h 3 v 2.25 h -3 v 4.5 h 3 v 4.5 h -3 v 4.5 h 3 v 4.5 h -3 v 4.5 h 3 v 4.5 h -3 v 4.5 h 3 v 4.5 h -3 v 4.5 h 3 v 4.5 h -3 v 4.5 h 3 V 101 h -3 v 3 h -1.909091 v -3 h -3.818182 v 3 h -3.818182 v -3 h -3.818182 v 3 h -3.818182 v -3 H 63 v 3 h -3.818182 v -3 h -3.818182 v 3 h -3.818182 v -3 h -3.818182 v 3 H 43.90909 v -3 h -3.818182 v 3 h -3.818182 v -3 h -3.818182 v 3 h -3.818182 v -3 h -3.818181 v 3 h -3.818182 v -3 h -3.818182 v 3 h -3.818182 v -3 H 9.5454529 v 3 h -3.818182 v -3 H 1.9090891 v 3 H -1.81816e-6 v -3 H -3.0000018 V 98.75 H -1.81816e-6 v -4.5 H -3.0000018 v -4.5 H -1.81816e-6 v -4.5 H -3.0000018 v -4.5 H -1.81816e-6 v -4.5 H -3.0000018 v -4.5 H -1.81816e-6 v -4.5 H -3.0000018 v -4.5 H -1.81816e-6 v -4.5 H -3.0000018 v -4.5 H -1.81816e-6 v -4.5 H -3.0000018 V 47 H -1.81816e-6"
         inkscape:connector-curvature="0" />
      <path
         style="fill:none;stroke:#0000ff;stroke-width:0.02;stroke-linecap:butt;stroke-linejoin:miter;stroke-miterlimit:4;stroke-dasharray:none"
         id="boxa-base"
         d="m 0,104 m 84,0 v 1 h 3 v 2 h -3 v 2 h 3 v 2 h -3 v 2 h 3 v 2 h -3 v 2 h 3 v 2 h -3 v 2 h 3 v 2 h -3 v 2 h 3 v 2 h -3 v 2 h 3 v 2 h -3 v 2 h 3 v 2 h -3 v 2 h 3 v 2 h -3 v 2 h 3 v 2 h -3 v 2 h 3 v 2 h -3 v 1 h -1.909091 v 3 h -3.818182 v -3 h -3.818182 v 3 h -3.818182 v -3 h -3.818182 v 3 H 63 v -3 h -3.818182 v 3 h -3.818182 v -3 h -3.818182 v 3 h -3.818182 v -3 H 43.90909 v 3 h -3.818182 v -3 h -3.818182 v 3 h -3.818182 v -3 h -3.818182 v 3 h -3.818181 v -3 h -3.818182 v 3 h -3.818182 v -3 h -3.818182 v 3 H 9.5454529 v -3 h -3.818182 v 3 H 1.9090891 v -3 H -1.81816e-6 v -1 H -3.0000018 v -2 H -1.81816e-6 v -2 H -3.0000018 v -2 H -1.81816e-6 v -2 H -3.0000018 v -2 H -1.81816e-6 v -2 H -3.0000018 v -2 H -1.81816e-6 v -2 H -3.0000018 v -2 H -1.81816e-6 v -2 H -3.0000018 v -2 H -1.81816e-6 v -2 H -3.0000018 v -2 H -1.81816e-6 v -2 H -3.0000018 v -2 H -1.81816e-6 v -2 H -3.0000018 v -2 H -1.81816e-6 v -2 H -3.0000018 v -2 H -1.81816e-6 v -2 H -3.0000018 v -2 H -1.81816e-6 v -1"
         inkscape:connector-curvature="0" />
      <path
         style="fill:none;stroke:#0000ff;stroke-width:0.02;stroke-linecap:butt;stroke-linejoin:miter;stroke-miterlimit:4;stroke-dasharray:none"
         id="boxa-longside2"
         d="m 0,151 v -3 m 84,0 v 3 h 3 v 2.25 h -3 v 4.5 h 3 v 4.5 h -3 v 4.5 h 3 v 4.5 h -3 v 4.5 h 3 v 4.5 h -3 v 4.5 h 3 v 4.5 h -3 v 4.5 h 3 v 4.5 h -3 v 4.5 h 3 V 205 h -3 v 3 h -1.909091 v -3 h -3.818182 v 3 h -3.818182 v -3 h -3.818182 v 3 h -3.818182 v -3 H 63 v 3 h -3.818182 v -3 h -3.818182 v 3 h -3.818182 v -3 h -3.818182 v 3 H 43.90909 v -3 h -3.818182 v 3 h -3.818182 v -3 h -3.818182 v 3 h -3.818182 v -3 h -3.818181 v 3 h -3.818182 v -3 h -3.818182 v 3 h -3.818182 v -3 H 9.5454529 v 3 h -3.818182 v -3 H 1.9090891 v 3 H -1.81816e-6 v -3 H -3.0000018 v -2.25 H -1.81816e-6 v -4.5 H -3.0000018 v -4.5 H -1.81816e-6 v -4.5 H -3.0000018 v -4.5 H -1.81816e-6 v -4.5 H -3.0000018 v -4.5 H -1.81816e-6 v -4.5 H -3.0000018 v -4.5 H -1.81816e-6 v -4.5 H -3.0000018 v -4.5 H -1.81816e-6 v -4.5 H -3.0000018 V 151 H -1.81816e-6"
         inkscape:connector-curvature="0" />
      <path
         style="fill:none;stroke:#0000ff;stroke-width:0.02;stroke-linecap:butt;stroke-linejoin:miter;stroke-miterlimit:4;stroke-dasharray:none"
         id="boxa-endface2"
         d="m 84,0 h 5.25 v -3 h 4.5 v 3 h 4.5 v -3 h 4.5 v 3 h 4.5 v -3 h 4.5 v 3 h 4.5 v -3 h 4.5 v 3 h 4.5 v -3 h 4.5 v 3 h 4.5 v -3 h 4.5 V 0 H 144 v 1 h -3 v 2 h 3 v 2 h -3 v 2 h 3 v 2 h -3 v 2 h 3 v 2 h -3 v 2 h 3 v 2 h -3 v 2 h 3 v 2 h -3 v 2 h 3 v 2 h -3 v 2 h 3 v 2 h -3 v 2 h 3 v 2 h -3 v 2 h 3 v 2 h -3 v 2 h 3 v 2 h -3 v 2 h 3 v 1 h -5.25 v 3 h -4.5 v -3 h -4.5 v 3 h -4.5 v -3 h -4.5 v 3 h -4.5 v -3 h -4.5 v 3 h -4.5 v -3 h -4.5 v 3 h -4.5 v -3 h -4.5 v 3 h -4.5 V 44 H 87 84"
         inkscape:connector-curvature="0" />
      <path
         style="fill:none;stroke:#0000ff;stroke-width:0.02;stroke-linecap:butt;stroke-linejoin:miter;stroke-miterlimit:4;stroke-dasharray:none"
         id="boxa-endface1"
         d="m 84,104 h 5.25 v -3 h 4.5 v 3 h 4.5 v -3 h 4.5 v 3 h 4.5 v -3 h 4.5 v 3 h 4.5 v -3 h 4.5 v 3 h 4.5 v -3 h 4.5 v 3 h 4.5 v -3 h 4.5 v 3 H 144 v 1 h -3 v 2 h 3 v 2 h -3 v 2 h 3 v 2 h -3 v 2 h 3 v 2 h -3 v 2 h 3 v 2 h -3 v 2 h 3 v 2 h -3 v 2 h 3 v 2 h -3 v 2 h 3 v 2 h -3 v 2 h 3 v 2 h -3 v 2 h 3 v 2 h -3 v 2 h 3 v 2 h -3 v 2 h 3 v 1 h -5.25 v 3 h -4.5 v -3 h -4.5 v 3 h -4.5 v -3 h -4.5 v 3 h -4.5 v -3 h -4.5 v 3 h -4.5 v -3 h -4.5 v 3 h -4.5 v -3 h -4.5 v 3 h -4.5 v -3 H 87 84"
         inkscape:connector-curvature="0" />
    </g>
    <g
       id="boxk"
       transform="translate(38,-4.5)"
       style="stroke-width:0.02;stroke-miterlimit:4;stroke-dasharray:none">
      <path
         d="m 0,0 h 1.9090909 v -3 h 3.8181818 v 3 h 3.818182 v -3 h 3.8181823 v 3 h 3.818182 V -3 H 21 v 3 h 3.818182 v -3 h 3.818182 v 3 h 3.818182 v -3 h 3.818182 v 3 h 3.818182 v -3 h 3.818182 v 3 h 3.818182 v -3 h 3.818182 v 3 h 3.818182 v -3 h 3.818181 v 3 h 3.818182 v -3 h 3.818182 v 3 h 3.818182 v -3 h 3.818182 v 3 h 3.818182 v -3 h 3.818182 v 3 h 1.909091 v 1 h 3 v 2 h -3 v 2 h 3 v 2 h -3 v 2 h 3 v 2 h -3 v 2 h 3 v 2 h -3 v 2 h 3 v 2 h -3 v 2 h 3 v 2 h -3 v 2 h 3 v 2 h -3 v 2 h 3 v 2 h -3 v 2 h 3 v 2 h -3 v 2 h 3 v 2 h -3 v 2 h 3 v 2 h -3 v 1 h -1.909091 v 3 h -3.818182 v -3 h -3.818182 v 3 h -3.818182 v -3 h -3.818182 v 3 h -3.818182 v -3 h -3.818182 v 3 h -3.818181 v -3 h -3.818182 v 3 h -3.818182 v -3 h -3.818182 v 3 H 40.09091 v -3 h -3.818182 v 3 h -3.818182 v -3 h -3.818182 v 3 H 24.818182 V 44 H 21 v 3 h -3.818181 v -3 h -3.818182 v 3 H 9.5454547 v -3 h -3.818182 v 3 H 1.9090909 V 44 H 0 V 43 H -3 V 41 H 0 V 39 H -3 V 37 H 0 V 35 H -3 V 33 H 0 V 31 H -3 V 29 H 0 V 27 H -3 V 25 H 0 V 23 H -3 V 21 H 0 V 19 H -3 V 17 H 0 V 15 H -3 V 13 H 0 V 11 H -3 V 9 H 0 V 7 H -3 V 5 H 0 V 3 H -3 V 1 H 0 V 0"
         id="boxk-lid"
         style="fill:none;stroke:#0000ff;stroke-width:0.02;stroke-linecap:butt;stroke-linejoin:miter;stroke-miterlimit:4;stroke-dasharray:none"
         inkscape:connector-curvature="0" />
      <path
         d="m 0,47 v -3 m 84,0 v 3 h 3 v 2.25 h -3 v 4.5 h 3 v 4.5 h -3 v 4.5 h 3 v 4.5 h -3 v 4.5 h 3 v 4.5 h -3 v 4.5 h 3 v 4.5 h -3 v 4.5 h 3 v 4.5 h -3 v 4.5 h 3 V 101 h -3 v 3 h -1.909091 v -3 h -3.818182 v 3 h -3.818182 v -3 h -3.818182 v 3 h -3.818182 v -3 H 63 v 3 h -3.818182 v -3 h -3.818182 v 3 h -3.818182 v -3 h -3.818182 v 3 H 43.90909 v -3 h -3.818182 v 3 h -3.818182 v -3 h -3.818182 v 3 h -3.818182 v -3 h -3.818181 v 3 h -3.818182 v -3 h -3.818182 v 3 h -3.818182 v -3 H 9.5454529 v 3 h -3.818182 v -3 H 1.9090891 v 3 H -1.81816e-6 v -3 H -3.0000018 V 98.75 H -1.81816e-6 v -4.5 H -3.0000018 v -4.5 H -1.81816e-6 v -4.5 H -3.0000018 v -4.5 H -1.81816e-6 v -4.5 H -3.0000018 v -4.5 H -1.81816e-6 v -4.5 H -3.0000018 v -4.5 H -1.81816e-6 v -4.5 H -3.0000018 v -4.5 H -1.81816e-6 v -4.5 H -3.0000018 V 47 H -1.81816e-6"
         id="boxk-longside1"
         style="fill:none;stroke:#0000ff;stroke-width:0.02;stroke-linecap:butt;stroke-linejoin:miter;stroke-miterlimit:4;stroke-dasharray:none"
         inkscape:connector-curvature="0" />
      <path
         d="m 0,104 m 84,0 v 1 h 3 v 2 h -3 v 2 h 3 v 2 h -3 v 2 h 3 v 2 h -3 v 2 h 3 v 2 h -3 v 2 h 3 v 2 h -3 v 2 h 3 v 2 h -3 v 2 h 3 v 2 h -3 v 2 h 3 v 2 h -3 v 2 h 3 v 2 h -3 v 2 h 3 v 2 h -3 v 2 h 3 v 2 h -3 v 1 h -1.909091 v 3 h -3.818182 v -3 h -3.818182 v 3 h -3.818182 v -3 h -3.818182 v 3 H 63 v -3 h -3.818182 v 3 h -3.818182 v -3 h -3.818182 v 3 h -3.818182 v -3 H 43.90909 v 3 h -3.818182 v -3 h -3.818182 v 3 h -3.818182 v -3 h -3.818182 v 3 h -3.818181 v -3 h -3.818182 v 3 h -3.818182 v -3 h -3.818182 v 3 H 9.5454529 v -3 h -3.818182 v 3 H 1.9090891 v -3 H -1.81816e-6 v -1 H -3.0000018 v -2 H -1.81816e-6 v -2 H -3.0000018 v -2 H -1.81816e-6 v -2 H -3.0000018 v -2 H -1.81816e-6 v -2 H -3.0000018 v -2 H -1.81816e-6 v -2 H -3.0000018 v -2 H -1.81816e-6 v -2 H -3.0000018 v -2 H -1.81816e-6 v -2 H -3.0000018 v -2 H -1.81816e-6 v -2 H -3.0000018 v -2 H -1.81816e-6 v -2 H -3.0000018 v -2 H -1.81816e-6 v -2 H -3.0000018 v -2 H -1.81816e-6 v -2 H -3.0000018 v -2 H -1.81816e-6 v -1"
         id="boxk-base"
         style="fill:none;stroke:#0000ff;stroke-width:0.02;stroke-linecap:butt;stroke-linejoin:miter;stroke-miterlimit:4;stroke-dasharray:none"
         inkscape:connector-curvature="0" />
      <path
         d="m 0,151 v -3 m 84,0 v 3 h 3 v 2.25 h -3 v 4.5 h 3 v 4.5 h -3 v 4.5 h 3 v 4.5 h -3 v 4.5 h 3 v 4.5 h -3 v 4.5 h 3 v 4.5 h -3 v 4.5 h 3 v 4.5 h -3 v 4.5 h 3 V 205 h -3 v 3 h -1.909091 v -3 h -3.818182 v 3 h -3.818182 v -3 h -3.818182 v 3 h -3.818182 v -3 H 63 v 3 h -3.818182 v -3 h -3.818182 v 3 h -3.818182 v -3 h -3.818182 v 3 H 43.90909 v -3 h -3.818182 v 3 h -3.818182 v -3 h -3.818182 v 3 h -3.818182 v -3 h -3.818181 v 3 h -3.818182 v -3 h -3.818182 v 3 h -3.818182 v -3 H 9.5454529 v 3 h -3.818182 v -3 H 1.9090891 v 3 H -1.81816e-6 v -3 H -3.0000018 v -2.25 H -1.81816e-6 v -4.5 H -3.0000018 v -4.5 H -1.81816e-6 v -4.5 H -3.0000018 v -4.5 H -1.81816e-6 v -4.5 H -3.0000018 v -4.5 H -1.81816e-6 v -4.5 H -3.0000018 v -4.5 H -1.81816e-6 v -4.5 H -3.0000018 v -4.5 H -1.81816e-6 v -4.5 H -3.0000018 V 151 H -1.81816e-6"
         id="boxk-longside2"
         style="fill:none;stroke:#0000ff;stroke-width:0.02;stroke-linecap:butt;stroke-linejoin:miter;stroke-miterlimit:4;stroke-dasharray:none"
         inkscape:connector-curvature="0" />
      <path
         d="m 84,0 h 5.25 v -3 h 4.5 v 3 h 4.5 v -3 h 4.5 v 3 h 4.5 v -3 h 4.5 v 3 h 4.5 v -3 h 4.5 v 3 h 4.5 v -3 h 4.5 v 3 h 4.5 v -3 h 4.5 V 0 H 144 v 1 h -3 v 2 h 3 v 2 h -3 v 2 h 3 v 2 h -3 v 2 h 3 v 2 h -3 v 2 h 3 v 2 h -3 v 2 h 3 v 2 h -3 v 2 h 3 v 2 h -3 v 2 h 3 v 2 h -3 v 2 h 3 v 2 h -3 v 2 h 3 v 2 h -3 v 2 h 3 v 2 h -3 v 2 h 3 v 1 h -5.25 v 3 h -4.5 v -3 h -4.5 v 3 h -4.5 v -3 h -4.5 v 3 h -4.5 v -3 h -4.5 v 3 h -4.5 v -3 h -4.5 v 3 h -4.5 v -3 h -4.5 v 3 h -4.5 V 44 H 87 84"
         id="boxk-endface2"
         style="fill:none;stroke:#0000ff;stroke-width:0.02;stroke-linecap:butt;stroke-linejoin:miter;stroke-miterlimit:4;stroke-dasharray:none"
         inkscape:connector-curvature="0" />
      <path
         d="m 84,104 h 5.25 v -3 h 4.5 v 3 h 4.5 v -3 h 4.5 v 3 h 4.5 v -3 h 4.5 v 3 h 4.5 v -3 h 4.5 v 3 h 4.5 v -3 h 4.5 v 3 h 4.5 v -3 h 4.5 v 3 H 144 v 1 h -3 v 2 h 3 v 2 h -3 v 2 h 3 v 2 h -3 v 2 h 3 v 2 h -3 v 2 h 3 v 2 h -3 v 2 h 3 v 2 h -3 v 2 h 3 v 2 h -3 v 2 h 3 v 2 h -3 v 2 h 3 v 2 h -3 v 2 h 3 v 2 h -3 v 2 h 3 v 2 h -3 v 2 h 3 v 1 h -5.25 v 3 h -4.5 v -3 h -4.5 v 3 h -4.5 v -3 h -4.5 v 3 h -4.5 v -3 h -4.5 v 3 h -4.5 v -3 h -4.5 v 3 h -4.5 v -3 h -4.5 v 3 h -4.5 v -3 H 87 84"
         id="boxk-endface1"
         style="fill:none;stroke:#0000ff;stroke-width:0.02;stroke-linecap:butt;stroke-linejoin:miter;stroke-miterlimit:4;stroke-dasharray:none"
         inkscape:connector-curvature="0" />
    </g>
    <g
       transform="translate(38,-4.5)"
       id="box4"
       style="stroke-width:0.02;stroke-miterlimit:4;stroke-dasharray:none">
      <path
         style="fill:none;stroke:#0000ff;stroke-width:0.02;stroke-linecap:butt;stroke-linejoin:miter;stroke-miterlimit:4;stroke-dasharray:none"
         id="box4-lid"
         d="m 0,0 h 1.9090909 v -3 h 3.8181818 v 3 h 3.818182 v -3 h 3.8181823 v 3 h 3.818182 V -3 H 21 v 3 h 3.818182 v -3 h 3.818182 v 3 h 3.818182 v -3 h 3.818182 v 3 h 3.818182 v -3 h 3.818182 v 3 h 3.818182 v -3 h 3.818182 v 3 h 3.818182 v -3 h 3.818181 v 3 h 3.818182 v -3 h 3.818182 v 3 h 3.818182 v -3 h 3.818182 v 3 h 3.818182 v -3 h 3.818182 v 3 h 1.909091 v 1 h 3 v 2 h -3 v 2 h 3 v 2 h -3 v 2 h 3 v 2 h -3 v 2 h 3 v 2 h -3 v 2 h 3 v 2 h -3 v 2 h 3 v 2 h -3 v 2 h 3 v 2 h -3 v 2 h 3 v 2 h -3 v 2 h 3 v 2 h -3 v 2 h 3 v 2 h -3 v 2 h 3 v 2 h -3 v 1 h -1.909091 v 3 h -3.818182 v -3 h -3.818182 v 3 h -3.818182 v -3 h -3.818182 v 3 h -3.818182 v -3 h -3.818182 v 3 h -3.818181 v -3 h -3.818182 v 3 h -3.818182 v -3 h -3.818182 v 3 H 40.09091 v -3 h -3.818182 v 3 h -3.818182 v -3 h -3.818182 v 3 H 24.818182 V 44 H 21 v 3 h -3.818181 v -3 h -3.818182 v 3 H 9.5454547 v -3 h -3.818182 v 3 H 1.9090909 V 44 H 0 V 43 H -3 V 41 H 0 V 39 H -3 V 37 H 0 V 35 H -3 V 33 H 0 V 31 H -3 V 29 H 0 V 27 H -3 V 25 H 0 V 23 H -3 V 21 H 0 V 19 H -3 V 17 H 0 V 15 H -3 V 13 H 0 V 11 H -3 V 9 H 0 V 7 H -3 V 5 H 0 V 3 H -3 V 1 H 0 V 0"
         inkscape:connector-curvature="0" />
      <path
         style="fill:none;stroke:#0000ff;stroke-width:0.02;stroke-linecap:butt;stroke-linejoin:miter;stroke-miterlimit:4;stroke-dasharray:none"
         id="box4-longside1"
         d="m 0,47 v -3 m 84,0 v 3 h 3 v 2.25 h -3 v 4.5 h 3 v 4.5 h -3 v 4.5 h 3 v 4.5 h -3 v 4.5 h 3 v 4.5 h -3 v 4.5 h 3 v 4.5 h -3 v 4.5 h 3 v 4.5 h -3 v 4.5 h 3 V 101 h -3 v 3 h -1.909091 v -3 h -3.818182 v 3 h -3.818182 v -3 h -3.818182 v 3 h -3.818182 v -3 H 63 v 3 h -3.818182 v -3 h -3.818182 v 3 h -3.818182 v -3 h -3.818182 v 3 H 43.90909 v -3 h -3.818182 v 3 h -3.818182 v -3 h -3.818182 v 3 h -3.818182 v -3 h -3.818181 v 3 h -3.818182 v -3 h -3.818182 v 3 h -3.818182 v -3 H 9.5454529 v 3 h -3.818182 v -3 H 1.9090891 v 3 H -1.81816e-6 v -3 H -3.0000018 V 98.75 H -1.81816e-6 v -4.5 H -3.0000018 v -4.5 H -1.81816e-6 v -4.5 H -3.0000018 v -4.5 H -1.81816e-6 v -4.5 H -3.0000018 v -4.5 H -1.81816e-6 v -4.5 H -3.0000018 v -4.5 H -1.81816e-6 v -4.5 H -3.0000018 v -4.5 H -1.81816e-6 v -4.5 H -3.0000018 V 47 H -1.81816e-6"
         inkscape:connector-curvature="0" />
      <path
         style="fill:none;stroke:#0000ff;stroke-width:0.02;stroke-linecap:butt;stroke-linejoin:miter;stroke-miterlimit:4;stroke-dasharray:none"
         id="box4-base"
         d="m 0,104 m 84,0 v 1 h 3 v 2 h -3 v 2 h 3 v 2 h -3 v 2 h 3 v 2 h -3 v 2 h 3 v 2 h -3 v 2 h 3 v 2 h -3 v 2 h 3 v 2 h -3 v 2 h 3 v 2 h -3 v 2 h 3 v 2 h -3 v 2 h 3 v 2 h -3 v 2 h 3 v 2 h -3 v 2 h 3 v 2 h -3 v 1 h -1.909091 v 3 h -3.818182 v -3 h -3.818182 v 3 h -3.818182 v -3 h -3.818182 v 3 H 63 v -3 h -3.818182 v 3 h -3.818182 v -3 h -3.818182 v 3 h -3.818182 v -3 H 43.90909 v 3 h -3.818182 v -3 h -3.818182 v 3 h -3.818182 v -3 h -3.818182 v 3 h -3.818181 v -3 h -3.818182 v 3 h -3.818182 v -3 h -3.818182 v 3 H 9.5454529 v -3 h -3.818182 v 3 H 1.9090891 v -3 H -1.81816e-6 v -1 H -3.0000018 v -2 H -1.81816e-6 v -2 H -3.0000018 v -2 H -1.81816e-6 v -2 H -3.0000018 v -2 H -1.81816e-6 v -2 H -3.0000018 v -2 H -1.81816e-6 v -2 H -3.0000018 v -2 H -1.81816e-6 v -2 H -3.0000018 v -2 H -1.81816e-6 v -2 H -3.0000018 v -2 H -1.81816e-6 v -2 H -3.0000018 v -2 H -1.81816e-6 v -2 H -3.0000018 v -2 H -1.81816e-6 v -2 H -3.0000018 v -2 H -1.81816e-6 v -2 H -3.0000018 v -2 H -1.81816e-6 v -1"
         inkscape:connector-curvature="0" />
      <path
         style="fill:none;stroke:#0000ff;stroke-width:0.02;stroke-linecap:butt;stroke-linejoin:miter;stroke-miterlimit:4;stroke-dasharray:none"
         id="box4-longside2"
         d="m 0,151 v -3 m 84,0 v 3 h 3 v 2.25 h -3 v 4.5 h 3 v 4.5 h -3 v 4.5 h 3 v 4.5 h -3 v 4.5 h 3 v 4.5 h -3 v 4.5 h 3 v 4.5 h -3 v 4.5 h 3 v 4.5 h -3 v 4.5 h 3 V 205 h -3 v 3 h -1.909091 v -3 h -3.818182 v 3 h -3.818182 v -3 h -3.818182 v 3 h -3.818182 v -3 H 63 v 3 h -3.818182 v -3 h -3.818182 v 3 h -3.818182 v -3 h -3.818182 v 3 H 43.90909 v -3 h -3.818182 v 3 h -3.818182 v -3 h -3.818182 v 3 h -3.818182 v -3 h -3.818181 v 3 h -3.818182 v -3 h -3.818182 v 3 h -3.818182 v -3 H 9.5454529 v 3 h -3.818182 v -3 H 1.9090891 v 3 H -1.81816e-6 v -3 H -3.0000018 v -2.25 H -1.81816e-6 v -4.5 H -3.0000018 v -4.5 H -1.81816e-6 v -4.5 H -3.0000018 v -4.5 H -1.81816e-6 v -4.5 H -3.0000018 v -4.5 H -1.81816e-6 v -4.5 H -3.0000018 v -4.5 H -1.81816e-6 v -4.5 H -3.0000018 v -4.5 H -1.81816e-6 v -4.5 H -3.0000018 V 151 H -1.81816e-6"
         inkscape:connector-curvature="0" />
      <path
         style="fill:none;stroke:#0000ff;stroke-width:0.02;stroke-linecap:butt;stroke-linejoin:miter;stroke-miterlimit:4;stroke-dasharray:none"
         id="box4-endface2"
         d="m 84,0 h 5.25 v -3 h 4.5 v 3 h 4.5 v -3 h 4.5 v 3 h 4.5 v -3 h 4.5 v 3 h 4.5 v -3 h 4.5 v 3 h 4.5 v -3 h 4.5 v 3 h 4.5 v -3 h 4.5 V 0 H 144 v 1 h -3 v 2 h 3 v 2 h -3 v 2 h 3 v 2 h -3 v 2 h 3 v 2 h -3 v 2 h 3 v 2 h -3 v 2 h 3 v 2 h -3 v 2 h 3 v 2 h -3 v 2 h 3 v 2 h -3 v 2 h 3 v 2 h -3 v 2 h 3 v 2 h -3 v 2 h 3 v 2 h -3 v 2 h 3 v 1 h -5.25 v 3 h -4.5 v -3 h -4.5 v 3 h -4.5 v -3 h -4.5 v 3 h -4.5 v -3 h -4.5 v 3 h -4.5 v -3 h -4.5 v 3 h -4.5 v -3 h -4.5 v 3 h -4.5 V 44 H 87 84"
         inkscape:connector-curvature="0" />
      <path
         style="fill:none;stroke:#0000ff;stroke-width:0.02;stroke-linecap:butt;stroke-linejoin:miter;stroke-miterlimit:4;stroke-dasharray:none"
         id="box4-endface1"
         d="m 84,104 h 5.25 v -3 h 4.5 v 3 h 4.5 v -3 h 4.5 v 3 h 4.5 v -3 h 4.5 v 3 h 4.5 v -3 h 4.5 v 3 h 4.5 v -3 h 4.5 v 3 h 4.5 v -3 h 4.5 v 3 H 144 v 1 h -3 v 2 h 3 v 2 h -3 v 2 h 3 v 2 h -3 v 2 h 3 v 2 h -3 v 2 h 3 v 2 h -3 v 2 h 3 v 2 h -3 v 2 h 3 v 2 h -3 v 2 h 3 v 2 h -3 v 2 h 3 v 2 h -3 v 2 h 3 v 2 h -3 v 2 h 3 v 2 h -3 v 2 h 3 v 1 h -5.25 v 3 h -4.5 v -3 h -4.5 v 3 h -4.5 v -3 h -4.5 v 3 h -4.5 v -3 h -4.5 v 3 h -4.5 v -3 h -4.5 v 3 h -4.5 v -3 h -4.5 v 3 h -4.5 v -3 H 87 84"
         inkscape:connector-curvature="0" />
    </g>
  </g>
</svg>
